<svg width="120" height="116" viewBox="0 0 120 116" fill="none" xmlns="http://www.w3.org/2000/svg">
<circle cx="62" cy="58" r="31" fill="#589400"/>
<circle cx="62" cy="58" r="58" fill="#589400" fill-opacity="0.09"/>
<path d="M56.5479 69.509L45.4979 58.6134C44.834 57.9588 44.834 56.8974 45.4979 56.2428L47.902 53.8722C48.5659 53.2175 49.6423 53.2175 50.3062 53.8722L57.75 61.212L73.6938 45.4909C74.3577 44.8364 75.4341 44.8364 76.098 45.4909L78.5021 47.8615C79.166 48.5161 79.166 49.5775 78.5021 50.2321L58.9521 69.5091C58.2882 70.1637 57.2118 70.1637 56.5479 69.509Z" fill="white"/>
<circle cx="100.5" cy="12.5" r="2.5" stroke="#F9B32D" stroke-width="2"/>
<circle cx="19" cy="107" r="3.5" stroke="#74B11A" stroke-width="3"/>
<circle cx="107" cy="96" r="5.5" stroke="#74B11A" stroke-width="3"/>
<circle cx="9.5" cy="11.5" r="7" stroke="#74B11A" stroke-width="5"/>
</svg>
